{"title":"Mofos - Fernandinha Fernandez - Brazilian Big ass ","uid":11088273,"size":159291672,"categoryP":"porn","categoryS":"movie_clips","magnet":"?xt=urn:btih:9f66d3387265a8780fecaa5a75adb0b3ded94756&amp;dn=Mofos+-+Fernandinha+Fernandez+-+Brazilian+Big+ass+&amp;tr=udp%3A%2F%2Ftracker.openbittorrent.com%3A80&amp;tr=udp%3A%2F%2Fopen.demonii.com%3A1337&amp;tr=udp%3A%2F%2Ftracker.coppersurfer.tk%3A6969&amp;tr=udp%3A%2F%2Fexodus.desync.com%3A6969","seeders":0,"leechers":0,"uploader":"supertongo","files":1,"time":1411481398,"description":"Mofos - Fernandinha Fernandez - Brazilian Big ass video in ipod/psp/mobile compatible resolution\n\n\n:::Media info:::\n\nGeneral\nFormat                         : MPEG-4\nFormat profile                 : Base Media / Version 2\nCodec ID                       : mp42\nFile size                      : 152 MiB\nDuration                       : 48mn 39s\nOverall bit rate mode          : Variable\nOverall bit rate               : 436 Kbps\n\n\nVideo\nID                             : 1\nFormat                         : AVC\nFormat/Info                    : Advanced Video Codec\nFormat profile                 : &lt;a class=&quot;__cf_email__&quot; href=&quot;/cdn-cgi/l/email-protection&quot; data-cfemail=&quot;e4a6859781888d8a81a4a8d7cad4&quot;&gt;[email&amp;#160;protected]&lt;/a&gt;&lt;script data-cfhash='f9e31' type=&quot;text/javascript&quot;&gt;\n/* &lt;![CDATA[ */!function(){try{var t=&quot;currentScript&quot;in document?document.currentScript:function(){for(var t=document.getElementsByTagName(&quot;script&quot;),e=t.length;e--;)if(t[e].getAttribute(&quot;data-cfhash&quot;))return t[e]}();if(t&amp;&amp;t.previousSibling){var e,r,n,i,c=t.previousSibling,a=c.getAttribute(&quot;data-cfemail&quot;);if(a){for(e=&quot;&quot;,r=parseInt(a.substr(0,2),16),n=2;a.length-n;n+=2)i=parseInt(a.substr(n,2),16)^r,e+=String.fromCharCode(i);e=document.createTextNode(e),c.parentNode.replaceChild(e,c)}t.parentNode.removeChild(t);}}catch(u){}}()/* ]]&gt; */&lt;/script&gt;\nFormat settings, CABAC         : No\nFormat settings, ReFrames      : 2 frames\nCodec ID                       : avc1\nCodec ID/Info                  : Advanced Video Coding\nDuration                       : 48mn 39s\nDuration_FirstFrame            : 67ms\nBit rate                       : 299 Kbps\nWidth                          : 480 pixels\nHeight                         : 272 pixels\nDisplay aspect ratio           : 16:9\nFrame rate mode                : Constant\nFrame rate                     : 29.970 fps\nColor space                    : YUV\nChroma subsampling             : 4:2:0\nBit depth                      : 8 bits\nScan type                      : Progressive\nBits/(Pixel*Frame)             : 0.076\nStream size                    : 104 MiB (68%)\n\nAudio\nID                             : 2\nFormat                         : AAC\nFormat/Info                    : Advanced Audio Codec\nFormat profile                 : LC\nCodec ID                       : 40\nDuration                       : 48mn 39s\nBit rate mode                  : Variable\nBit rate                       : 112 Kbps\nMaximum bit rate               : 215 Kbps\nChannel(s)                     : 2 channels\nChannel positions              : Front: L R\nSampling rate                  : 48.0 KHz\nCompression mode               : Lossy\nStream size                    : 39.1 MiB (26%)\nLanguage                       : English\n\n &lt;a href=&quot;\nhttp://bayimg.com/bAaePAagJ&quot; rel=&quot;nofollow&quot; target=&quot;_NEW&quot;&gt;\nhttp://bayimg.com/bAaePAagJ&lt;/a&gt;","torrent":{"xt":"urn:btih:9f66d3387265a8780fecaa5a75adb0b3ded94756","amp;dn":"Mofos+-+Fernandinha+Fernandez+-+Brazilian+Big+ass+","amp;tr":["udp%3A%2F%2Ftracker.openbittorrent.com%3A80","udp%3A%2F%2Fopen.demonii.com%3A1337","udp%3A%2F%2Ftracker.coppersurfer.tk%3A6969","udp%3A%2F%2Fexodus.desync.com%3A6969"],"infoHash":"9f66d3387265a8780fecaa5a75adb0b3ded94756","infoHashBuffer":{"type":"Buffer","data":[159,102,211,56,114,101,168,120,15,236,170,90,117,173,176,179,222,217,71,86]},"announce":[],"urlList":[]}}